<svg width="194" height="274" viewBox="0 0 194 274" fill="none" xmlns="http://www.w3.org/2000/svg">
<path d="M66.099 271.634C66.2456 273.007 67.4774 274.001 68.8503 273.855L91.2231 271.465C92.596 271.319 93.5901 270.087 93.4434 268.714C93.2968 267.341 92.0649 266.347 90.692 266.493L70.8052 268.618L68.6811 248.731C68.5344 247.358 67.3026 246.364 65.9297 246.51C64.5568 246.657 63.5627 247.889 63.7094 249.262L66.099 271.634ZM1.00005 2.99984L0.178143 5.36087C92.0043 37.3268 143.253 67.9661 168.358 96.1739C180.865 110.227 186.801 123.585 188.143 136.146C189.485 148.71 186.259 160.747 179.969 172.205C167.324 195.24 142.533 215.525 118.971 232.149C107.206 240.449 95.9156 247.726 86.6325 254.004C82.0134 257.128 77.8907 260.005 74.5133 262.608C71.1663 265.187 68.415 267.598 66.6393 269.799L68.5848 271.369L70.5303 272.939C71.921 271.216 74.2845 269.097 77.5654 266.569C80.8159 264.064 84.8341 261.256 89.4335 258.146C98.5873 251.955 110.044 244.566 121.853 236.234C145.439 219.594 171.104 198.746 184.352 174.611C191.009 162.483 194.59 149.425 193.115 135.615C191.639 121.801 185.134 107.503 172.093 92.8498C146.1 63.6444 93.8213 32.665 1.82196 0.638805L1.00005 2.99984Z" fill="white"/>
</svg>
