<svg width="145" height="259" viewBox="0 0 145 259" fill="none" xmlns="http://www.w3.org/2000/svg">
<path d="M118.144 256.888C118.634 258.178 120.078 258.827 121.369 258.337L142.403 250.349C143.693 249.858 144.342 248.415 143.852 247.124C143.362 245.833 141.918 245.184 140.627 245.674L121.93 252.775L114.829 234.078C114.339 232.788 112.895 232.139 111.605 232.629C110.314 233.119 109.665 234.563 110.155 235.854L118.144 256.888ZM120.481 2L118.904 0.0603826C83.5098 28.8428 57.4966 53.1293 39.0225 73.7679C20.5661 94.3868 9.53043 111.479 4.23954 125.881C-1.07731 140.354 -0.620989 152.211 4.04551 162.098C8.66879 171.894 17.2553 179.39 27.4776 185.551C37.7071 191.717 49.825 196.692 61.7925 201.319C73.8414 205.977 85.6891 210.267 95.717 215.122C105.786 219.997 113.562 225.239 117.744 231.554C121.766 237.628 122.673 245.025 118.201 254.975L120.481 256L122.761 257.025C127.816 245.78 127.034 236.527 121.912 228.793C116.95 221.299 108.125 215.574 97.896 210.622C87.6262 205.649 75.4792 201.25 63.5956 196.655C51.6305 192.029 39.8782 187.187 30.0587 181.269C20.2321 175.346 12.591 168.49 8.5672 159.964C4.58666 151.53 3.97649 141.096 8.93285 127.605C13.9152 114.043 24.4925 97.4971 42.748 77.1027C60.9857 56.7281 86.7833 32.6253 122.058 3.93962L120.481 2Z" fill="white"/>
</svg>
