<svg width="34" height="30" viewBox="0 0 34 30" fill="none" xmlns="http://www.w3.org/2000/svg">
<path d="M32.5833 5H1.41667C0.634263 5 0 5.55964 0 6.25C0 6.94036 0.634263 7.5 1.41667 7.5H32.5833C33.3657 7.5 34 6.94036 34 6.25C34 5.55964 33.3657 5 32.5833 5Z" fill="black"/>
<path d="M32.5833 13.75H1.41667C0.634263 13.75 0 14.3096 0 15C0 15.6904 0.634263 16.25 1.41667 16.25H32.5833C33.3657 16.25 34 15.6904 34 15C34 14.3096 33.3657 13.75 32.5833 13.75Z" fill="black"/>
<path d="M32.5833 22.5H1.41667C0.634263 22.5 0 23.0596 0 23.75C0 24.4404 0.634263 25 1.41667 25H32.5833C33.3657 25 34 24.4404 34 23.75C34 23.0596 33.3657 22.5 32.5833 22.5Z" fill="black"/>
</svg>
