<svg width="33" height="33" viewBox="0 0 33 33" fill="none" xmlns="http://www.w3.org/2000/svg">
<path d="M8.25 0.792725H24.75C26.938 0.792725 29.0365 1.62632 30.5836 3.11014C32.1308 4.59395 33 6.60644 33 8.70487V24.5292C33 26.6276 32.1308 28.6401 30.5836 30.1239C29.0365 31.6077 26.938 32.4413 24.75 32.4413H8.25C6.06196 32.4413 3.96354 31.6077 2.41637 30.1239C0.869194 28.6401 0 26.6276 0 24.5292V8.70487C0 6.60644 0.869194 4.59395 2.41637 3.11014C3.96354 1.62632 6.06196 0.792725 8.25 0.792725ZM16.5 8.70487C14.312 8.70487 12.2135 9.53846 10.6664 11.0223C9.11919 12.5061 8.25 14.5186 8.25 16.617C8.25 18.7154 9.11919 20.7279 10.6664 22.2117C12.2135 23.6956 14.312 24.5292 16.5 24.5292C18.688 24.5292 20.7865 23.6956 22.3336 22.2117C23.8808 20.7279 24.75 18.7154 24.75 16.617C24.75 14.5186 23.8808 12.5061 22.3336 11.0223C20.7865 9.53846 18.688 8.70487 16.5 8.70487ZM25.575 7.91365C24.9186 7.91365 24.2891 8.16373 23.8249 8.60888C23.3608 9.05402 23.1 9.65777 23.1 10.2873C23.1 10.9168 23.3608 11.5206 23.8249 11.9657C24.2891 12.4109 24.9186 12.6609 25.575 12.6609C26.2314 12.6609 26.8609 12.4109 27.3251 11.9657C27.7892 11.5206 28.05 10.9168 28.05 10.2873C28.05 9.65777 27.7892 9.05402 27.3251 8.60888C26.8609 8.16373 26.2314 7.91365 25.575 7.91365Z" fill="black"/>
</svg>
