<svg width="31" height="32" viewBox="0 0 31 32" fill="none" xmlns="http://www.w3.org/2000/svg">
<path d="M6.68312 3.44006C6.68312 5.33898 5.19351 6.88012 3.35498 6.88012C1.51645 6.88012 0 5.33898 0 3.44006C0 1.54115 1.48961 0 3.35498 0C5.22035 0 6.68312 1.54115 6.68312 3.44006ZM0 9.63217H6.70996V31.6486H0V9.63217ZM10.0649 9.63217H16.5065V12.6594H16.6004C17.4996 10.8706 19.687 8.98544 22.9481 8.98544C29.7519 8.98544 31 13.5676 31 19.5258V31.6486H24.29V22.7044C24.29 20.5028 24.2498 17.6544 21.2974 17.6544C18.3048 17.6544 17.8485 20.0487 17.8485 22.5393V31.6486H11.1385V9.63217H10.0649Z" fill="black"/>
</svg>
